{
	"patcher" : 	{
		"fileversion" : 1,
		"appversion" : 		{
			"major" : 6,
			"minor" : 1,
			"revision" : 9,
			"architecture" : "x86"
		}
,
		"rect" : [ 67.0, 44.0, 880.0, 809.0 ],
		"bgcolor" : [ 1.0, 1.0, 1.0, 0.0 ],
		"bglocked" : 0,
		"openinpresentation" : 1,
		"default_fontsize" : 10.0,
		"default_fontface" : 0,
		"default_fontname" : "Verdana",
		"gridonopen" : 0,
		"gridsize" : [ 5.0, 5.0 ],
		"gridsnaponopen" : 0,
		"statusbarvisible" : 2,
		"toolbarvisible" : 1,
		"boxanimatetime" : 200,
		"imprint" : 0,
		"enablehscroll" : 1,
		"enablevscroll" : 1,
		"devicewidth" : 0.0,
		"description" : "",
		"digest" : "",
		"tags" : "",
		"boxes" : [ 			{
				"box" : 				{
					"fontname" : "Verdana",
					"fontsize" : 10.0,
					"frgb" : 0.0,
					"id" : "obj-259",
					"maxclass" : "comment",
					"numinlets" : 1,
					"numoutlets" : 0,
					"patching_rect" : [ 473.0, 533.5, 48.0, 19.0 ],
					"presentation" : 1,
					"presentation_rect" : [ 30.0, 344.0, 48.0, 19.0 ],
					"text" : "texture"
				}

			}
, 			{
				"box" : 				{
					"fontname" : "Verdana",
					"fontsize" : 10.0,
					"id" : "obj-260",
					"maxclass" : "newobj",
					"numinlets" : 2,
					"numoutlets" : 2,
					"outlettype" : [ "", "" ],
					"patching_rect" : [ 537.0, 528.5, 58.0, 19.0 ],
					"text" : "route text"
				}

			}
, 			{
				"box" : 				{
					"fontname" : "Verdana",
					"fontsize" : 10.0,
					"id" : "obj-261",
					"maxclass" : "newobj",
					"numinlets" : 1,
					"numoutlets" : 4,
					"outlettype" : [ "", "", "", "" ],
					"patching_rect" : [ 537.0, 550.5, 95.0, 19.0 ],
					"text" : "j.remote texture",
					"varname" : "render/context[10]"
				}

			}
, 			{
				"box" : 				{
					"fontname" : "Verdana",
					"fontsize" : 10.0,
					"frgb" : 0.0,
					"id" : "obj-262",
					"keymode" : 1,
					"lines" : 1,
					"maxclass" : "textedit",
					"numinlets" : 1,
					"numoutlets" : 4,
					"outlettype" : [ "", "int", "", "" ],
					"parameter_enable" : 0,
					"patching_rect" : [ 497.0, 555.5, 37.0, 18.0 ],
					"presentation" : 1,
					"presentation_rect" : [ 110.5, 344.0, 122.0, 18.0 ],
					"varname" : "Context[5]"
				}

			}
, 			{
				"box" : 				{
					"fontname" : "Verdana",
					"fontsize" : 8.0,
					"frgb" : 0.0,
					"id" : "obj-243",
					"maxclass" : "comment",
					"numinlets" : 1,
					"numoutlets" : 0,
					"patching_rect" : [ 537.0, 438.0, 123.0, 16.0 ],
					"presentation" : 1,
					"presentation_rect" : [ 108.0, 438.5, 117.0, 16.0 ],
					"text" : " frontface        backface "
				}

			}
, 			{
				"box" : 				{
					"fontname" : "Verdana",
					"fontsize" : 10.0,
					"id" : "obj-242",
					"items" : [ "Filled", ",", "Lines", ",", "Points" ],
					"labelclick" : 1,
					"maxclass" : "umenu",
					"numinlets" : 1,
					"numoutlets" : 3,
					"outlettype" : [ "int", "", "" ],
					"parameter_enable" : 0,
					"patching_rect" : [ 569.0, 464.0, 57.0, 19.0 ],
					"presentation" : 1,
					"presentation_rect" : [ 170.5, 451.5, 62.0, 19.0 ]
				}

			}
, 			{
				"box" : 				{
					"fontname" : "Verdana",
					"fontsize" : 10.0,
					"id" : "obj-238",
					"maxclass" : "newobj",
					"numinlets" : 1,
					"numoutlets" : 4,
					"outlettype" : [ "", "", "", "" ],
					"patching_rect" : [ 601.0, 493.0, 117.0, 19.0 ],
					"text" : "j.remote poly_mode",
					"varname" : "material/light/ambient[3]"
				}

			}
, 			{
				"box" : 				{
					"fontname" : "Verdana",
					"fontsize" : 10.0,
					"id" : "obj-239",
					"maxclass" : "newobj",
					"numinlets" : 11,
					"numoutlets" : 11,
					"outlettype" : [ "", "", "", "", "", "", "", "", "", "", "" ],
					"patching_rect" : [ 450.0, 493.0, 144.0, 19.0 ],
					"text" : "j.list2parameter 2"
				}

			}
, 			{
				"box" : 				{
					"fontname" : "Verdana",
					"fontsize" : 10.0,
					"frgb" : 0.0,
					"id" : "obj-235",
					"maxclass" : "comment",
					"numinlets" : 1,
					"numoutlets" : 0,
					"patching_rect" : [ 443.0, 438.0, 76.0, 19.0 ],
					"presentation" : 1,
					"presentation_rect" : [ 30.0, 451.5, 66.0, 19.0 ],
					"text" : "poly_mode"
				}

			}
, 			{
				"box" : 				{
					"fontname" : "Verdana",
					"fontsize" : 10.0,
					"id" : "obj-237",
					"items" : [ "Filled", ",", "Lines", ",", "Points" ],
					"labelclick" : 1,
					"maxclass" : "umenu",
					"numinlets" : 1,
					"numoutlets" : 3,
					"outlettype" : [ "int", "", "" ],
					"parameter_enable" : 0,
					"patching_rect" : [ 450.0, 464.0, 57.0, 19.0 ],
					"presentation" : 1,
					"presentation_rect" : [ 108.0, 451.5, 57.5, 19.0 ]
				}

			}
, 			{
				"box" : 				{
					"fontname" : "Verdana",
					"fontsize" : 10.0,
					"id" : "obj-14",
					"maxclass" : "newobj",
					"numinlets" : 1,
					"numoutlets" : 4,
					"outlettype" : [ "", "", "", "" ],
					"patching_rect" : [ 264.0, 593.0, 101.0, 19.0 ],
					"text" : "j.remote anchor",
					"varname" : "3D/scale[1]"
				}

			}
, 			{
				"box" : 				{
					"fontname" : "Verdana",
					"fontsize" : 10.0,
					"id" : "obj-2",
					"maxclass" : "newobj",
					"numinlets" : 11,
					"numoutlets" : 11,
					"outlettype" : [ "", "", "", "", "", "", "", "", "", "", "" ],
					"patching_rect" : [ 116.0, 598.0, 144.0, 19.0 ],
					"text" : "j.list2parameter 3"
				}

			}
, 			{
				"box" : 				{
					"fontname" : "Verdana",
					"fontsize" : 10.0,
					"id" : "obj-16",
					"maxclass" : "flonum",
					"numinlets" : 1,
					"numoutlets" : 2,
					"outlettype" : [ "float", "bang" ],
					"parameter_enable" : 0,
					"patching_rect" : [ 200.0, 579.0, 40.0, 19.0 ],
					"presentation" : 1,
					"presentation_rect" : [ 236.0, 221.0, 40.0, 19.0 ],
					"triangle" : 0,
					"triscale" : 0.9
				}

			}
, 			{
				"box" : 				{
					"fontname" : "Verdana",
					"fontsize" : 10.0,
					"id" : "obj-3",
					"maxclass" : "flonum",
					"numinlets" : 1,
					"numoutlets" : 2,
					"outlettype" : [ "float", "bang" ],
					"parameter_enable" : 0,
					"patching_rect" : [ 158.0, 579.0, 40.0, 19.0 ],
					"presentation" : 1,
					"presentation_rect" : [ 193.0, 221.0, 40.0, 19.0 ],
					"triangle" : 0,
					"triscale" : 0.9
				}

			}
, 			{
				"box" : 				{
					"fontname" : "Verdana",
					"fontsize" : 10.0,
					"id" : "obj-18",
					"maxclass" : "flonum",
					"numinlets" : 1,
					"numoutlets" : 2,
					"outlettype" : [ "float", "bang" ],
					"parameter_enable" : 0,
					"patching_rect" : [ 116.0, 579.0, 40.0, 19.0 ],
					"presentation" : 1,
					"presentation_rect" : [ 152.0, 221.0, 40.0, 19.0 ],
					"triangle" : 0,
					"triscale" : 0.9
				}

			}
, 			{
				"box" : 				{
					"fontname" : "Verdana",
					"fontsize" : 10.0,
					"frgb" : 0.0,
					"id" : "obj-4",
					"maxclass" : "comment",
					"numinlets" : 1,
					"numoutlets" : 0,
					"patching_rect" : [ 46.0, 579.0, 66.0, 19.0 ],
					"presentation" : 1,
					"presentation_rect" : [ 23.0, 222.0, 66.0, 19.0 ],
					"text" : "anchor:"
				}

			}
, 			{
				"box" : 				{
					"fontname" : "Verdana",
					"fontsize" : 10.0,
					"id" : "obj-5",
					"maxclass" : "newobj",
					"numinlets" : 1,
					"numoutlets" : 4,
					"outlettype" : [ "", "", "", "" ],
					"patching_rect" : [ 557.0, 650.5, 119.0, 19.0 ],
					"text" : "j.remote layer",
					"varname" : "render/layer"
				}

			}
, 			{
				"box" : 				{
					"fontname" : "Verdana",
					"fontsize" : 10.0,
					"id" : "obj-6",
					"maxclass" : "number",
					"numinlets" : 1,
					"numoutlets" : 2,
					"outlettype" : [ "int", "bang" ],
					"parameter_enable" : 0,
					"patching_rect" : [ 517.0, 650.5, 35.0, 19.0 ],
					"presentation" : 1,
					"presentation_rect" : [ 236.5, 380.5, 35.0, 19.0 ],
					"triangle" : 0,
					"triscale" : 0.9,
					"varname" : "Layer"
				}

			}
, 			{
				"box" : 				{
					"fontname" : "Verdana",
					"fontsize" : 10.0,
					"frgb" : 0.0,
					"id" : "obj-7",
					"maxclass" : "comment",
					"numinlets" : 1,
					"numoutlets" : 0,
					"patching_rect" : [ 460.5, 650.5, 40.0, 19.0 ],
					"presentation" : 1,
					"presentation_rect" : [ 236.5, 363.5, 40.0, 19.0 ],
					"text" : "Layer"
				}

			}
, 			{
				"box" : 				{
					"fontname" : "Verdana",
					"fontsize" : 10.0,
					"frgb" : 0.0,
					"id" : "obj-10",
					"maxclass" : "comment",
					"numinlets" : 1,
					"numoutlets" : 0,
					"patching_rect" : [ 451.0, 616.5, 55.0, 19.0 ],
					"presentation" : 1,
					"presentation_rect" : [ 110.5, 363.5, 55.0, 19.0 ],
					"text" : "Context"
				}

			}
, 			{
				"box" : 				{
					"fontname" : "Verdana",
					"fontsize" : 10.0,
					"id" : "obj-12",
					"maxclass" : "newobj",
					"numinlets" : 2,
					"numoutlets" : 2,
					"outlettype" : [ "", "" ],
					"patching_rect" : [ 555.0, 594.5, 58.0, 19.0 ],
					"text" : "route text"
				}

			}
, 			{
				"box" : 				{
					"fontname" : "Verdana",
					"fontsize" : 10.0,
					"id" : "obj-20",
					"maxclass" : "newobj",
					"numinlets" : 1,
					"numoutlets" : 4,
					"outlettype" : [ "", "", "", "" ],
					"patching_rect" : [ 555.0, 616.5, 132.0, 19.0 ],
					"text" : "j.remote context",
					"varname" : "render/context"
				}

			}
, 			{
				"box" : 				{
					"fontname" : "Verdana",
					"fontsize" : 10.0,
					"frgb" : 0.0,
					"id" : "obj-24",
					"keymode" : 1,
					"lines" : 1,
					"maxclass" : "textedit",
					"numinlets" : 1,
					"numoutlets" : 4,
					"outlettype" : [ "", "int", "", "" ],
					"parameter_enable" : 0,
					"patching_rect" : [ 515.0, 616.5, 37.0, 18.0 ],
					"presentation" : 1,
					"presentation_rect" : [ 110.5, 380.5, 122.0, 18.0 ],
					"text" : "none",
					"varname" : "Context"
				}

			}
, 			{
				"box" : 				{
					"fontname" : "Verdana",
					"fontsize" : 10.0,
					"id" : "obj-25",
					"maxclass" : "message",
					"numinlets" : 2,
					"numoutlets" : 1,
					"outlettype" : [ "" ],
					"patching_rect" : [ 331.0, 655.5, 25.0, 17.0 ],
					"text" : "6 7"
				}

			}
, 			{
				"box" : 				{
					"fontname" : "Verdana",
					"fontsize" : 10.0,
					"id" : "obj-28",
					"maxclass" : "newobj",
					"numinlets" : 1,
					"numoutlets" : 4,
					"outlettype" : [ "", "", "", "" ],
					"patching_rect" : [ 262.0, 683.5, 117.0, 19.0 ],
					"text" : "j.remote blend/mode",
					"varname" : "blend/mode"
				}

			}
, 			{
				"box" : 				{
					"fontname" : "Verdana",
					"fontsize" : 10.0,
					"id" : "obj-31",
					"maxclass" : "newobj",
					"numinlets" : 11,
					"numoutlets" : 11,
					"outlettype" : [ "", "", "", "", "", "", "", "", "", "", "" ],
					"patching_rect" : [ 116.0, 683.5, 144.0, 19.0 ],
					"text" : "j.list2parameter 2"
				}

			}
, 			{
				"box" : 				{
					"fontname" : "Verdana",
					"fontsize" : 10.0,
					"id" : "obj-52",
					"maxclass" : "newobj",
					"numinlets" : 2,
					"numoutlets" : 1,
					"outlettype" : [ "" ],
					"patching_rect" : [ 262.0, 652.5, 65.0, 19.0 ],
					"text" : "round"
				}

			}
, 			{
				"box" : 				{
					"fontname" : "Verdana",
					"fontsize" : 10.0,
					"frgb" : 0.0,
					"id" : "obj-53",
					"maxclass" : "comment",
					"numinlets" : 1,
					"numoutlets" : 0,
					"patching_rect" : [ 46.0, 655.5, 99.0, 19.0 ],
					"presentation" : 1,
					"presentation_rect" : [ 23.0, 279.0, 99.0, 19.0 ],
					"text" : "Mode destination:"
				}

			}
, 			{
				"box" : 				{
					"fontname" : "Verdana",
					"fontsize" : 10.0,
					"id" : "obj-54",
					"items" : [ "0:", "zero", ",", "1:", "one", ",", "2:", "destination", "color", ",", "3:", "source", "color", ",", "4:", "one", "minus", "destination", "color", ",", "5:", "one", "minus", "source", "color", ",", "6:", "source", "alpha", ",", "7:", "one", "minus", "source", "alpha", ",", "8:", "destination", "alpha", ",", "9:", "one", "minus", "destination", "alpha", ",", "10:", "source", "alpha", "saturate" ],
					"labelclick" : 1,
					"maxclass" : "umenu",
					"numinlets" : 1,
					"numoutlets" : 3,
					"outlettype" : [ "int", "", "" ],
					"parameter_enable" : 0,
					"patching_rect" : [ 195.0, 652.5, 64.0, 19.0 ],
					"presentation" : 1,
					"presentation_rect" : [ 127.0, 279.0, 146.0, 19.0 ],
					"varname" : "BlendModeDst"
				}

			}
, 			{
				"box" : 				{
					"fontname" : "Verdana",
					"fontsize" : 10.0,
					"id" : "obj-55",
					"maxclass" : "newobj",
					"numinlets" : 1,
					"numoutlets" : 4,
					"outlettype" : [ "", "", "", "" ],
					"patching_rect" : [ 537.0, 745.0, 128.0, 19.0 ],
					"text" : "j.remote enable",
					"varname" : "render/enable"
				}

			}
, 			{
				"box" : 				{
					"fontname" : "Verdana",
					"fontsize" : 10.0,
					"id" : "obj-56",
					"maxclass" : "newobj",
					"numinlets" : 1,
					"numoutlets" : 4,
					"outlettype" : [ "", "", "", "" ],
					"patching_rect" : [ 538.0, 680.0, 136.0, 19.0 ],
					"text" : "j.remote antialias",
					"varname" : "render/antialias"
				}

			}
, 			{
				"box" : 				{
					"fontname" : "Verdana",
					"fontsize" : 10.0,
					"id" : "obj-58",
					"maxclass" : "newobj",
					"numinlets" : 1,
					"numoutlets" : 4,
					"outlettype" : [ "", "", "", "" ],
					"patching_rect" : [ 551.0, 392.0, 122.0, 19.0 ],
					"text" : "j.remote blend/enable",
					"varname" : "blend/enable"
				}

			}
, 			{
				"box" : 				{
					"fontname" : "Verdana",
					"fontsize" : 10.0,
					"id" : "obj-98",
					"maxclass" : "newobj",
					"numinlets" : 1,
					"numoutlets" : 4,
					"outlettype" : [ "", "", "", "" ],
					"patching_rect" : [ 289.0, 708.0, 113.0, 19.0 ],
					"text" : "j.remote alpha",
					"varname" : "color/alpha"
				}

			}
, 			{
				"box" : 				{
					"fontname" : "Verdana",
					"fontsize" : 10.0,
					"id" : "obj-100",
					"maxclass" : "newobj",
					"numinlets" : 1,
					"numoutlets" : 4,
					"outlettype" : [ "", "", "", "" ],
					"patching_rect" : [ 272.0, 746.0, 81.0, 19.0 ],
					"text" : "j.remote color",
					"varname" : "color/rgb"
				}

			}
, 			{
				"box" : 				{
					"fontname" : "Verdana",
					"fontsize" : 10.0,
					"id" : "obj-101",
					"maxclass" : "newobj",
					"numinlets" : 11,
					"numoutlets" : 11,
					"outlettype" : [ "", "", "", "", "", "", "", "", "", "", "" ],
					"patching_rect" : [ 116.0, 749.0, 144.0, 19.0 ],
					"text" : "j.list2parameter 3"
				}

			}
, 			{
				"box" : 				{
					"fontname" : "Verdana",
					"fontsize" : 10.0,
					"id" : "obj-105",
					"maxclass" : "newobj",
					"numinlets" : 1,
					"numoutlets" : 4,
					"outlettype" : [ "", "", "", "" ],
					"patching_rect" : [ 264.0, 543.5, 101.0, 19.0 ],
					"text" : "j.remote scale",
					"varname" : "3D/scale"
				}

			}
, 			{
				"box" : 				{
					"fontname" : "Verdana",
					"fontsize" : 10.0,
					"id" : "obj-106",
					"maxclass" : "newobj",
					"numinlets" : 11,
					"numoutlets" : 11,
					"outlettype" : [ "", "", "", "", "", "", "", "", "", "", "" ],
					"patching_rect" : [ 116.0, 548.5, 144.0, 19.0 ],
					"text" : "j.list2parameter 3"
				}

			}
, 			{
				"box" : 				{
					"fontname" : "Verdana",
					"fontsize" : 10.0,
					"id" : "obj-111",
					"maxclass" : "newobj",
					"numinlets" : 1,
					"numoutlets" : 4,
					"outlettype" : [ "", "", "", "" ],
					"patching_rect" : [ 266.0, 495.5, 115.0, 19.0 ],
					"text" : "j.remote rotate",
					"varname" : "3D/rotate"
				}

			}
, 			{
				"box" : 				{
					"fontname" : "Verdana",
					"fontsize" : 10.0,
					"id" : "obj-112",
					"maxclass" : "newobj",
					"numinlets" : 11,
					"numoutlets" : 11,
					"outlettype" : [ "", "", "", "", "", "", "", "", "", "", "" ],
					"patching_rect" : [ 116.0, 496.5, 144.0, 19.0 ],
					"text" : "j.list2parameter 4"
				}

			}
, 			{
				"box" : 				{
					"fontname" : "Verdana",
					"fontsize" : 10.0,
					"id" : "obj-116",
					"maxclass" : "newobj",
					"numinlets" : 1,
					"numoutlets" : 4,
					"outlettype" : [ "", "", "", "" ],
					"patching_rect" : [ 261.0, 428.5, 115.0, 19.0 ],
					"text" : "j.remote position",
					"varname" : "3D/position"
				}

			}
, 			{
				"box" : 				{
					"fontname" : "Verdana",
					"fontsize" : 10.0,
					"id" : "obj-117",
					"maxclass" : "newobj",
					"numinlets" : 11,
					"numoutlets" : 11,
					"outlettype" : [ "", "", "", "", "", "", "", "", "", "", "" ],
					"patching_rect" : [ 115.0, 430.5, 144.0, 19.0 ],
					"text" : "j.list2parameter 3"
				}

			}
, 			{
				"box" : 				{
					"fontname" : "Verdana",
					"fontsize" : 10.0,
					"frgb" : 0.0,
					"id" : "obj-123",
					"maxclass" : "comment",
					"numinlets" : 1,
					"numoutlets" : 0,
					"patching_rect" : [ 451.0, 680.0, 51.0, 19.0 ],
					"presentation" : 1,
					"presentation_rect" : [ 128.5, 419.5, 51.0, 19.0 ],
					"text" : "Antialias"
				}

			}
, 			{
				"box" : 				{
					"bgcolor" : [ 1.0, 1.0, 1.0, 0.0 ],
					"disabled" : [ 0 ],
					"id" : "obj-124",
					"itemtype" : 1,
					"maxclass" : "radiogroup",
					"numinlets" : 1,
					"numoutlets" : 1,
					"outlettype" : [ "" ],
					"parameter_enable" : 0,
					"patching_rect" : [ 516.0, 680.0, 18.0, 18.0 ],
					"presentation" : 1,
					"presentation_rect" : [ 110.5, 419.5, 73.0, 18.0 ],
					"size" : 1,
					"values" : [ 0 ],
					"varname" : "Antialias"
				}

			}
, 			{
				"box" : 				{
					"fontname" : "Verdana",
					"fontsize" : 10.0,
					"frgb" : 0.0,
					"id" : "obj-125",
					"maxclass" : "comment",
					"numinlets" : 1,
					"numoutlets" : 0,
					"patching_rect" : [ 451.0, 745.0, 45.0, 19.0 ],
					"presentation" : 1,
					"presentation_rect" : [ 128.5, 399.5, 45.0, 19.0 ],
					"text" : "Enable"
				}

			}
, 			{
				"box" : 				{
					"bgcolor" : [ 1.0, 1.0, 1.0, 0.0 ],
					"disabled" : [ 0 ],
					"id" : "obj-126",
					"itemtype" : 1,
					"maxclass" : "radiogroup",
					"numinlets" : 1,
					"numoutlets" : 1,
					"outlettype" : [ "" ],
					"parameter_enable" : 0,
					"patching_rect" : [ 515.0, 745.0, 18.0, 18.0 ],
					"presentation" : 1,
					"presentation_rect" : [ 110.5, 399.5, 73.0, 18.0 ],
					"size" : 1,
					"values" : [ 1 ],
					"varname" : "RenderEnable"
				}

			}
, 			{
				"box" : 				{
					"fontname" : "Verdana",
					"fontsize" : 10.0,
					"frgb" : 0.0,
					"id" : "obj-127",
					"maxclass" : "comment",
					"numinlets" : 1,
					"numoutlets" : 0,
					"patching_rect" : [ 419.5, 588.5, 57.0, 19.0 ],
					"presentation" : 1,
					"presentation_rect" : [ 23.5, 366.5, 57.0, 19.0 ],
					"text" : "Render"
				}

			}
, 			{
				"box" : 				{
					"fontname" : "Verdana",
					"fontsize" : 10.0,
					"id" : "obj-188",
					"maxclass" : "flonum",
					"maximum" : 1.0,
					"minimum" : 0.0,
					"numinlets" : 1,
					"numoutlets" : 2,
					"outlettype" : [ "float", "bang" ],
					"parameter_enable" : 0,
					"patching_rect" : [ 116.0, 728.0, 40.0, 19.0 ],
					"presentation" : 1,
					"presentation_rect" : [ 110.0, 323.0, 40.0, 19.0 ],
					"triangle" : 0,
					"triscale" : 0.9,
					"varname" : "ColR"
				}

			}
, 			{
				"box" : 				{
					"fontname" : "Verdana",
					"fontsize" : 10.0,
					"id" : "obj-189",
					"maxclass" : "flonum",
					"maximum" : 1.0,
					"minimum" : 0.0,
					"numinlets" : 1,
					"numoutlets" : 2,
					"outlettype" : [ "float", "bang" ],
					"parameter_enable" : 0,
					"patching_rect" : [ 245.0, 728.0, 40.0, 19.0 ],
					"presentation" : 1,
					"presentation_rect" : [ 236.0, 323.0, 40.0, 19.0 ],
					"triangle" : 0,
					"triscale" : 0.9,
					"varname" : "ColA"
				}

			}
, 			{
				"box" : 				{
					"fontname" : "Verdana",
					"fontsize" : 10.0,
					"id" : "obj-190",
					"maxclass" : "flonum",
					"maximum" : 1.0,
					"minimum" : 0.0,
					"numinlets" : 1,
					"numoutlets" : 2,
					"outlettype" : [ "float", "bang" ],
					"parameter_enable" : 0,
					"patching_rect" : [ 200.0, 728.0, 40.0, 19.0 ],
					"presentation" : 1,
					"presentation_rect" : [ 194.0, 323.0, 40.0, 19.0 ],
					"triangle" : 0,
					"triscale" : 0.9,
					"varname" : "ColB"
				}

			}
, 			{
				"box" : 				{
					"fontname" : "Verdana",
					"fontsize" : 10.0,
					"id" : "obj-191",
					"maxclass" : "flonum",
					"maximum" : 1.0,
					"minimum" : 0.0,
					"numinlets" : 1,
					"numoutlets" : 2,
					"outlettype" : [ "float", "bang" ],
					"parameter_enable" : 0,
					"patching_rect" : [ 158.0, 728.0, 40.0, 19.0 ],
					"presentation" : 1,
					"presentation_rect" : [ 152.0, 323.0, 40.0, 19.0 ],
					"triangle" : 0,
					"triscale" : 0.9,
					"varname" : "ColG"
				}

			}
, 			{
				"box" : 				{
					"fontname" : "Verdana",
					"fontsize" : 10.0,
					"frgb" : 0.0,
					"id" : "obj-192",
					"maxclass" : "comment",
					"numinlets" : 1,
					"numoutlets" : 0,
					"patching_rect" : [ 245.0, 711.0, 40.0, 19.0 ],
					"presentation" : 1,
					"presentation_rect" : [ 236.0, 306.0, 40.0, 19.0 ],
					"text" : "Alpha"
				}

			}
, 			{
				"box" : 				{
					"fontname" : "Verdana",
					"fontsize" : 10.0,
					"frgb" : 0.0,
					"id" : "obj-193",
					"maxclass" : "comment",
					"numinlets" : 1,
					"numoutlets" : 0,
					"patching_rect" : [ 200.0, 711.0, 38.0, 19.0 ],
					"presentation" : 1,
					"presentation_rect" : [ 194.0, 306.0, 38.0, 19.0 ],
					"text" : "Blue"
				}

			}
, 			{
				"box" : 				{
					"fontname" : "Verdana",
					"fontsize" : 10.0,
					"frgb" : 0.0,
					"id" : "obj-194",
					"maxclass" : "comment",
					"numinlets" : 1,
					"numoutlets" : 0,
					"patching_rect" : [ 158.0, 711.0, 39.0, 19.0 ],
					"presentation" : 1,
					"presentation_rect" : [ 152.0, 306.0, 39.0, 19.0 ],
					"text" : "Green"
				}

			}
, 			{
				"box" : 				{
					"fontname" : "Verdana",
					"fontsize" : 10.0,
					"frgb" : 0.0,
					"id" : "obj-195",
					"maxclass" : "comment",
					"numinlets" : 1,
					"numoutlets" : 0,
					"patching_rect" : [ 116.0, 711.0, 40.0, 19.0 ],
					"presentation" : 1,
					"presentation_rect" : [ 110.0, 306.0, 40.0, 19.0 ],
					"text" : "Red"
				}

			}
, 			{
				"box" : 				{
					"fontname" : "Verdana",
					"fontsize" : 10.0,
					"frgb" : 0.0,
					"id" : "obj-197",
					"maxclass" : "comment",
					"numinlets" : 1,
					"numoutlets" : 0,
					"patching_rect" : [ 46.0, 721.5, 58.0, 19.0 ],
					"presentation" : 1,
					"presentation_rect" : [ 23.0, 304.0, 58.0, 19.0 ],
					"text" : "Color"
				}

			}
, 			{
				"box" : 				{
					"fontname" : "Verdana",
					"fontsize" : 10.0,
					"frgb" : 0.0,
					"id" : "obj-198",
					"maxclass" : "comment",
					"numinlets" : 1,
					"numoutlets" : 0,
					"patching_rect" : [ 46.0, 634.0, 58.0, 19.0 ],
					"presentation" : 1,
					"presentation_rect" : [ 23.0, 242.0, 58.0, 19.0 ],
					"text" : "Blend"
				}

			}
, 			{
				"box" : 				{
					"fontname" : "Verdana",
					"fontsize" : 10.0,
					"frgb" : 0.0,
					"id" : "obj-199",
					"maxclass" : "comment",
					"numinlets" : 1,
					"numoutlets" : 0,
					"patching_rect" : [ 46.0, 676.5, 76.0, 19.0 ],
					"presentation" : 1,
					"presentation_rect" : [ 23.0, 260.0, 76.0, 19.0 ],
					"text" : "Mode source:"
				}

			}
, 			{
				"box" : 				{
					"fontname" : "Verdana",
					"fontsize" : 10.0,
					"frgb" : 0.0,
					"id" : "obj-200",
					"maxclass" : "comment",
					"numinlets" : 1,
					"numoutlets" : 0,
					"patching_rect" : [ 443.0, 400.0, 45.0, 19.0 ],
					"presentation" : 1,
					"presentation_rect" : [ 146.0, 244.0, 45.0, 19.0 ],
					"text" : "Enable"
				}

			}
, 			{
				"box" : 				{
					"bgcolor" : [ 1.0, 1.0, 1.0, 0.0 ],
					"disabled" : [ 0 ],
					"id" : "obj-201",
					"itemtype" : 1,
					"maxclass" : "radiogroup",
					"numinlets" : 1,
					"numoutlets" : 1,
					"outlettype" : [ "" ],
					"parameter_enable" : 0,
					"patching_rect" : [ 527.0, 396.0, 18.0, 18.0 ],
					"presentation" : 1,
					"presentation_rect" : [ 128.0, 243.0, 73.0, 18.0 ],
					"size" : 1,
					"values" : [ 0 ],
					"varname" : "BlendEnable"
				}

			}
, 			{
				"box" : 				{
					"fontname" : "Verdana",
					"fontsize" : 10.0,
					"id" : "obj-202",
					"items" : [ "0:", "zero", ",", "1:", "one", ",", "2:", "destination", "color", ",", "3:", "source", "color", ",", "4:", "one", "minus", "destination", "color", ",", "5:", "one", "minus", "source", "color", ",", "6:", "source", "alpha", ",", "7:", "one", "minus", "source", "alpha", ",", "8:", "destination", "alpha", ",", "9:", "one", "minus", "destination", "alpha", ",", "10:", "source", "alpha", "saturate" ],
					"labelclick" : 1,
					"maxclass" : "umenu",
					"numinlets" : 1,
					"numoutlets" : 3,
					"outlettype" : [ "int", "", "" ],
					"parameter_enable" : 0,
					"patching_rect" : [ 124.0, 652.5, 64.0, 19.0 ],
					"presentation" : 1,
					"presentation_rect" : [ 127.0, 260.0, 146.0, 19.0 ],
					"varname" : "BlendModeSrc"
				}

			}
, 			{
				"box" : 				{
					"fontname" : "Verdana",
					"fontsize" : 10.0,
					"id" : "obj-203",
					"maxclass" : "flonum",
					"numinlets" : 1,
					"numoutlets" : 2,
					"outlettype" : [ "float", "bang" ],
					"parameter_enable" : 0,
					"patching_rect" : [ 114.0, 465.5, 40.0, 19.0 ],
					"presentation" : 1,
					"presentation_rect" : [ 110.0, 185.0, 40.0, 19.0 ],
					"triangle" : 0,
					"triscale" : 0.9,
					"varname" : "RotAngle"
				}

			}
, 			{
				"box" : 				{
					"fontname" : "Verdana",
					"fontsize" : 10.0,
					"id" : "obj-204",
					"maxclass" : "flonum",
					"numinlets" : 1,
					"numoutlets" : 2,
					"outlettype" : [ "float", "bang" ],
					"parameter_enable" : 0,
					"patching_rect" : [ 240.0, 465.5, 40.0, 19.0 ],
					"presentation" : 1,
					"presentation_rect" : [ 236.0, 185.0, 40.0, 19.0 ],
					"triangle" : 0,
					"triscale" : 0.9,
					"varname" : "RotZ"
				}

			}
, 			{
				"box" : 				{
					"fontname" : "Verdana",
					"fontsize" : 10.0,
					"id" : "obj-205",
					"maxclass" : "flonum",
					"numinlets" : 1,
					"numoutlets" : 2,
					"outlettype" : [ "float", "bang" ],
					"parameter_enable" : 0,
					"patching_rect" : [ 198.0, 465.5, 40.0, 19.0 ],
					"presentation" : 1,
					"presentation_rect" : [ 194.0, 185.0, 40.0, 19.0 ],
					"triangle" : 0,
					"triscale" : 0.9,
					"varname" : "RotY"
				}

			}
, 			{
				"box" : 				{
					"fontname" : "Verdana",
					"fontsize" : 10.0,
					"id" : "obj-206",
					"maxclass" : "flonum",
					"numinlets" : 1,
					"numoutlets" : 2,
					"outlettype" : [ "float", "bang" ],
					"parameter_enable" : 0,
					"patching_rect" : [ 156.0, 465.5, 40.0, 19.0 ],
					"presentation" : 1,
					"presentation_rect" : [ 152.0, 185.0, 40.0, 19.0 ],
					"triangle" : 0,
					"triscale" : 0.9,
					"varname" : "RotX"
				}

			}
, 			{
				"box" : 				{
					"fontname" : "Verdana",
					"fontsize" : 10.0,
					"id" : "obj-207",
					"maxclass" : "flonum",
					"numinlets" : 1,
					"numoutlets" : 2,
					"outlettype" : [ "float", "bang" ],
					"parameter_enable" : 0,
					"patching_rect" : [ 200.0, 529.5, 40.0, 19.0 ],
					"presentation" : 1,
					"presentation_rect" : [ 236.0, 203.0, 40.0, 19.0 ],
					"triangle" : 0,
					"triscale" : 0.9,
					"varname" : "ScaleZ"
				}

			}
, 			{
				"box" : 				{
					"fontname" : "Verdana",
					"fontsize" : 10.0,
					"id" : "obj-208",
					"maxclass" : "flonum",
					"numinlets" : 1,
					"numoutlets" : 2,
					"outlettype" : [ "float", "bang" ],
					"parameter_enable" : 0,
					"patching_rect" : [ 158.0, 529.5, 40.0, 19.0 ],
					"presentation" : 1,
					"presentation_rect" : [ 194.0, 203.0, 40.0, 19.0 ],
					"triangle" : 0,
					"triscale" : 0.9,
					"varname" : "ScaleY[1]"
				}

			}
, 			{
				"box" : 				{
					"fontname" : "Verdana",
					"fontsize" : 10.0,
					"id" : "obj-209",
					"maxclass" : "flonum",
					"numinlets" : 1,
					"numoutlets" : 2,
					"outlettype" : [ "float", "bang" ],
					"parameter_enable" : 0,
					"patching_rect" : [ 116.0, 529.5, 40.0, 19.0 ],
					"presentation" : 1,
					"presentation_rect" : [ 152.0, 203.0, 40.0, 19.0 ],
					"triangle" : 0,
					"triscale" : 0.9,
					"varname" : "ScaleX[1]"
				}

			}
, 			{
				"box" : 				{
					"fontname" : "Verdana",
					"fontsize" : 10.0,
					"id" : "obj-210",
					"maxclass" : "flonum",
					"numinlets" : 1,
					"numoutlets" : 2,
					"outlettype" : [ "float", "bang" ],
					"parameter_enable" : 0,
					"patching_rect" : [ 199.0, 411.5, 40.0, 19.0 ],
					"presentation" : 1,
					"presentation_rect" : [ 236.0, 167.0, 40.0, 19.0 ],
					"triangle" : 0,
					"triscale" : 0.9,
					"varname" : "PosZ"
				}

			}
, 			{
				"box" : 				{
					"fontname" : "Verdana",
					"fontsize" : 10.0,
					"id" : "obj-211",
					"maxclass" : "flonum",
					"numinlets" : 1,
					"numoutlets" : 2,
					"outlettype" : [ "float", "bang" ],
					"parameter_enable" : 0,
					"patching_rect" : [ 157.0, 411.5, 40.0, 19.0 ],
					"presentation" : 1,
					"presentation_rect" : [ 194.0, 167.0, 40.0, 19.0 ],
					"triangle" : 0,
					"triscale" : 0.9,
					"varname" : "PosY"
				}

			}
, 			{
				"box" : 				{
					"fontname" : "Verdana",
					"fontsize" : 10.0,
					"id" : "obj-212",
					"maxclass" : "flonum",
					"numinlets" : 1,
					"numoutlets" : 2,
					"outlettype" : [ "float", "bang" ],
					"parameter_enable" : 0,
					"patching_rect" : [ 115.0, 411.5, 40.0, 19.0 ],
					"presentation" : 1,
					"presentation_rect" : [ 152.0, 167.0, 40.0, 19.0 ],
					"triangle" : 0,
					"triscale" : 0.9,
					"varname" : "PosX"
				}

			}
, 			{
				"box" : 				{
					"fontname" : "Verdana",
					"fontsize" : 10.0,
					"frgb" : 0.0,
					"id" : "obj-213",
					"maxclass" : "comment",
					"numinlets" : 1,
					"numoutlets" : 0,
					"patching_rect" : [ 199.0, 392.5, 38.0, 19.0 ],
					"presentation" : 1,
					"presentation_rect" : [ 236.0, 149.0, 38.0, 19.0 ],
					"text" : "Z"
				}

			}
, 			{
				"box" : 				{
					"fontname" : "Verdana",
					"fontsize" : 10.0,
					"frgb" : 0.0,
					"id" : "obj-214",
					"maxclass" : "comment",
					"numinlets" : 1,
					"numoutlets" : 0,
					"patching_rect" : [ 157.0, 392.5, 38.0, 19.0 ],
					"presentation" : 1,
					"presentation_rect" : [ 194.0, 149.0, 38.0, 19.0 ],
					"text" : "Y"
				}

			}
, 			{
				"box" : 				{
					"fontname" : "Verdana",
					"fontsize" : 10.0,
					"frgb" : 0.0,
					"id" : "obj-215",
					"maxclass" : "comment",
					"numinlets" : 1,
					"numoutlets" : 0,
					"patching_rect" : [ 115.0, 392.5, 38.0, 19.0 ],
					"presentation" : 1,
					"presentation_rect" : [ 152.0, 149.0, 38.0, 19.0 ],
					"text" : "X"
				}

			}
, 			{
				"box" : 				{
					"fontname" : "Verdana",
					"fontsize" : 10.0,
					"frgb" : 0.0,
					"id" : "obj-217",
					"maxclass" : "comment",
					"numinlets" : 1,
					"numoutlets" : 0,
					"patching_rect" : [ 46.0, 465.5, 66.0, 19.0 ],
					"presentation" : 1,
					"presentation_rect" : [ 23.0, 185.0, 66.0, 19.0 ],
					"text" : "Rotate:"
				}

			}
, 			{
				"box" : 				{
					"fontname" : "Verdana",
					"fontsize" : 10.0,
					"frgb" : 0.0,
					"id" : "obj-218",
					"maxclass" : "comment",
					"numinlets" : 1,
					"numoutlets" : 0,
					"patching_rect" : [ 46.0, 529.5, 66.0, 19.0 ],
					"presentation" : 1,
					"presentation_rect" : [ 23.0, 203.0, 66.0, 19.0 ],
					"text" : "Scale:"
				}

			}
, 			{
				"box" : 				{
					"fontname" : "Verdana",
					"fontsize" : 10.0,
					"frgb" : 0.0,
					"id" : "obj-219",
					"maxclass" : "comment",
					"numinlets" : 1,
					"numoutlets" : 0,
					"patching_rect" : [ 773.0, 41.5, 66.0, 19.0 ],
					"presentation" : 1,
					"presentation_rect" : [ 23.0, 167.0, 66.0, 19.0 ],
					"text" : "Position"
				}

			}
, 			{
				"box" : 				{
					"fontname" : "Verdana",
					"fontsize" : 10.0,
					"frgb" : 0.0,
					"id" : "obj-221",
					"maxclass" : "comment",
					"numinlets" : 1,
					"numoutlets" : 0,
					"patching_rect" : [ 757.0, 26.5, 72.0, 19.0 ],
					"presentation" : 1,
					"presentation_rect" : [ 23.0, 145.0, 72.0, 19.0 ],
					"text" : "3D position"
				}

			}
, 			{
				"box" : 				{
					"fontname" : "Verdana",
					"fontsize" : 10.0,
					"frgb" : 0.0,
					"id" : "obj-231",
					"maxclass" : "comment",
					"numinlets" : 1,
					"numoutlets" : 0,
					"patching_rect" : [ 272.0, 634.0, 146.0, 19.0 ],
					"text" : "<- converting to list of ints"
				}

			}
, 			{
				"box" : 				{
					"fontname" : "Verdana",
					"fontsize" : 10.0,
					"id" : "obj-1",
					"maxclass" : "newobj",
					"numinlets" : 1,
					"numoutlets" : 0,
					"patching_rect" : [ 0.0, 146.0, 110.0, 19.0 ],
					"text" : "j.gl_group.panel GL"
				}

			}
, 			{
				"box" : 				{
					"fontname" : "Verdana",
					"fontsize" : 10.0,
					"id" : "obj-8",
					"maxclass" : "number",
					"minimum" : 0,
					"numinlets" : 1,
					"numoutlets" : 2,
					"outlettype" : [ "int", "bang" ],
					"parameter_enable" : 0,
					"patching_rect" : [ 507.0, 245.5, 41.0, 19.0 ],
					"presentation" : 1,
					"presentation_rect" : [ 195.0, 55.0, 45.0, 19.0 ],
					"triangle" : 0,
					"triscale" : 0.9,
					"varname" : "DimY"
				}

			}
, 			{
				"box" : 				{
					"fontname" : "Verdana",
					"fontsize" : 10.0,
					"id" : "obj-9",
					"maxclass" : "number",
					"minimum" : 0,
					"numinlets" : 1,
					"numoutlets" : 2,
					"outlettype" : [ "int", "bang" ],
					"parameter_enable" : 0,
					"patching_rect" : [ 462.0, 245.5, 41.0, 19.0 ],
					"presentation" : 1,
					"presentation_rect" : [ 145.0, 55.0, 45.0, 19.0 ],
					"triangle" : 0,
					"triscale" : 0.9,
					"varname" : "DimX"
				}

			}
, 			{
				"box" : 				{
					"fontname" : "Verdana",
					"fontsize" : 10.0,
					"id" : "obj-11",
					"maxclass" : "newobj",
					"numinlets" : 1,
					"numoutlets" : 4,
					"outlettype" : [ "", "", "", "" ],
					"patching_rect" : [ 560.0, 185.0, 163.0, 19.0 ],
					"text" : "j.remote videoplane/gridmode",
					"varname" : "videoplane/gridmode"
				}

			}
, 			{
				"box" : 				{
					"fontname" : "Verdana",
					"fontsize" : 10.0,
					"id" : "obj-13",
					"maxclass" : "newobj",
					"numinlets" : 1,
					"numoutlets" : 4,
					"outlettype" : [ "", "", "", "" ],
					"patching_rect" : [ 560.0, 150.0, 168.0, 19.0 ],
					"text" : "j.remote videoplane/colormode",
					"varname" : "videoplane/colormode"
				}

			}
, 			{
				"box" : 				{
					"fontname" : "Verdana",
					"fontsize" : 10.0,
					"id" : "obj-15",
					"maxclass" : "newobj",
					"numinlets" : 1,
					"numoutlets" : 4,
					"outlettype" : [ "", "", "", "" ],
					"patching_rect" : [ 560.0, 115.0, 170.0, 19.0 ],
					"text" : "j.remote videoplane/interpolate",
					"varname" : "videoplane/interpolate"
				}

			}
, 			{
				"box" : 				{
					"fontname" : "Verdana",
					"fontsize" : 10.0,
					"id" : "obj-21",
					"maxclass" : "newobj",
					"numinlets" : 1,
					"numoutlets" : 4,
					"outlettype" : [ "", "", "", "" ],
					"patching_rect" : [ 115.0, 175.0, 147.0, 19.0 ],
					"text" : "j.remote videoplane/nudge",
					"varname" : "videoplane/nudge"
				}

			}
, 			{
				"box" : 				{
					"fontname" : "Verdana",
					"fontsize" : 10.0,
					"id" : "obj-22",
					"maxclass" : "newobj",
					"numinlets" : 2,
					"numoutlets" : 1,
					"outlettype" : [ "" ],
					"patching_rect" : [ 586.5, 252.5, 60.0, 19.0 ],
					"text" : "round"
				}

			}
, 			{
				"box" : 				{
					"fontname" : "Verdana",
					"fontsize" : 10.0,
					"id" : "obj-23",
					"maxclass" : "newobj",
					"numinlets" : 1,
					"numoutlets" : 4,
					"outlettype" : [ "", "", "", "" ],
					"patching_rect" : [ 586.5, 275.5, 134.0, 19.0 ],
					"text" : "j.remote videoplane/dim",
					"varname" : "videoplane/dim"
				}

			}
, 			{
				"box" : 				{
					"fontname" : "Verdana",
					"fontsize" : 10.0,
					"id" : "obj-26",
					"maxclass" : "newobj",
					"numinlets" : 11,
					"numoutlets" : 11,
					"outlettype" : [ "", "", "", "", "", "", "", "", "", "", "" ],
					"patching_rect" : [ 462.0, 275.5, 113.0, 19.0 ],
					"text" : "j.list2parameter 2"
				}

			}
, 			{
				"box" : 				{
					"fontname" : "Verdana",
					"fontsize" : 10.0,
					"id" : "obj-27",
					"maxclass" : "newobj",
					"numinlets" : 1,
					"numoutlets" : 4,
					"outlettype" : [ "", "", "", "" ],
					"patching_rect" : [ 206.5, 256.0, 182.0, 19.0 ],
					"text" : "j.remote videoplane/texture/scale",
					"varname" : "videoplane/texture/scale"
				}

			}
, 			{
				"box" : 				{
					"fontname" : "Verdana",
					"fontsize" : 10.0,
					"id" : "obj-29",
					"maxclass" : "newobj",
					"numinlets" : 11,
					"numoutlets" : 11,
					"outlettype" : [ "", "", "", "", "", "", "", "", "", "", "" ],
					"patching_rect" : [ 80.5, 256.0, 113.0, 19.0 ],
					"text" : "j.list2parameter 2"
				}

			}
, 			{
				"box" : 				{
					"fontname" : "Verdana",
					"fontsize" : 10.0,
					"id" : "obj-30",
					"maxclass" : "newobj",
					"numinlets" : 1,
					"numoutlets" : 4,
					"outlettype" : [ "", "", "", "" ],
					"patching_rect" : [ 206.5, 336.0, 185.0, 19.0 ],
					"text" : "j.remote videoplane/texture/offset",
					"varname" : "videoplane/texture/offset"
				}

			}
, 			{
				"box" : 				{
					"fontname" : "Verdana",
					"fontsize" : 10.0,
					"id" : "obj-32",
					"maxclass" : "newobj",
					"numinlets" : 11,
					"numoutlets" : 11,
					"outlettype" : [ "", "", "", "", "", "", "", "", "", "", "" ],
					"patching_rect" : [ 85.5, 336.0, 113.0, 19.0 ],
					"text" : "j.list2parameter 2"
				}

			}
, 			{
				"box" : 				{
					"fontname" : "Verdana",
					"fontsize" : 10.0,
					"frgb" : 0.0,
					"id" : "obj-33",
					"maxclass" : "comment",
					"numinlets" : 1,
					"numoutlets" : 0,
					"patching_rect" : [ 60.0, 97.0, 47.0, 19.0 ],
					"presentation" : 1,
					"presentation_rect" : [ 75.0, 90.0, 47.0, 19.0 ],
					"text" : "color"
				}

			}
, 			{
				"box" : 				{
					"fontname" : "Verdana",
					"fontsize" : 10.0,
					"frgb" : 0.0,
					"id" : "obj-34",
					"maxclass" : "comment",
					"numinlets" : 1,
					"numoutlets" : 0,
					"patching_rect" : [ 60.0, 78.0, 47.0, 19.0 ],
					"presentation" : 1,
					"presentation_rect" : [ 75.0, 110.0, 47.0, 19.0 ],
					"text" : "grid"
				}

			}
, 			{
				"box" : 				{
					"fontname" : "Verdana",
					"fontsize" : 10.0,
					"id" : "obj-35",
					"items" : [ "quad", ",", "tri" ],
					"labelclick" : 1,
					"maxclass" : "umenu",
					"numinlets" : 1,
					"numoutlets" : 3,
					"outlettype" : [ "int", "", "" ],
					"parameter_enable" : 0,
					"patching_rect" : [ 435.0, 185.0, 95.0, 19.0 ],
					"presentation" : 1,
					"presentation_rect" : [ 10.0, 110.0, 60.0, 19.0 ],
					"varname" : "Gridmode"
				}

			}
, 			{
				"box" : 				{
					"fontname" : "Verdana",
					"fontsize" : 10.0,
					"frgb" : 0.0,
					"id" : "obj-36",
					"maxclass" : "comment",
					"numinlets" : 1,
					"numoutlets" : 0,
					"patching_rect" : [ 21.0, 59.0, 93.0, 19.0 ],
					"presentation" : 1,
					"presentation_rect" : [ 30.0, 60.0, 93.0, 19.0 ],
					"text" : "interpolate"
				}

			}
, 			{
				"box" : 				{
					"bgcolor" : [ 1.0, 1.0, 1.0, 0.0 ],
					"disabled" : [ 0 ],
					"id" : "obj-37",
					"itemtype" : 1,
					"maxclass" : "radiogroup",
					"numinlets" : 1,
					"numoutlets" : 1,
					"outlettype" : [ "" ],
					"parameter_enable" : 0,
					"patching_rect" : [ 435.0, 115.0, 90.0, 18.0 ],
					"presentation" : 1,
					"presentation_rect" : [ 10.0, 60.0, 90.0, 18.0 ],
					"size" : 1,
					"values" : [ 0 ],
					"varname" : "Interpolate"
				}

			}
, 			{
				"box" : 				{
					"fontname" : "Verdana",
					"fontsize" : 10.0,
					"frgb" : 0.0,
					"id" : "obj-38",
					"maxclass" : "comment",
					"numinlets" : 1,
					"numoutlets" : 0,
					"patching_rect" : [ 21.0, 42.0, 91.0, 19.0 ],
					"presentation" : 1,
					"presentation_rect" : [ 30.0, 45.0, 91.0, 19.0 ],
					"text" : "displaylist"
				}

			}
, 			{
				"box" : 				{
					"fontname" : "Verdana",
					"fontsize" : 10.0,
					"id" : "obj-40",
					"maxclass" : "flonum",
					"maximum" : 1.0,
					"minimum" : 0.0,
					"numinlets" : 1,
					"numoutlets" : 2,
					"outlettype" : [ "float", "bang" ],
					"parameter_enable" : 0,
					"patching_rect" : [ 69.0, 175.0, 40.0, 19.0 ],
					"presentation" : 1,
					"presentation_rect" : [ 195.0, 35.0, 45.0, 19.0 ],
					"triangle" : 0,
					"triscale" : 0.9,
					"varname" : "Nudge"
				}

			}
, 			{
				"box" : 				{
					"fontname" : "Verdana",
					"fontsize" : 10.0,
					"frgb" : 0.0,
					"id" : "obj-41",
					"maxclass" : "comment",
					"numinlets" : 1,
					"numoutlets" : 0,
					"patching_rect" : [ 103.0, 59.0, 77.0, 19.0 ],
					"presentation" : 1,
					"presentation_rect" : [ 240.0, 35.0, 60.0, 19.0 ],
					"text" : "nudge"
				}

			}
, 			{
				"box" : 				{
					"fontname" : "Verdana",
					"fontsize" : 10.0,
					"frgb" : 0.0,
					"id" : "obj-42",
					"maxclass" : "comment",
					"numinlets" : 1,
					"numoutlets" : 0,
					"patching_rect" : [ 21.0, 26.0, 93.0, 19.0 ],
					"presentation" : 1,
					"presentation_rect" : [ 30.0, 30.0, 93.0, 19.0 ],
					"text" : "client_storage"
				}

			}
, 			{
				"box" : 				{
					"fontname" : "Verdana",
					"fontsize" : 10.0,
					"frgb" : 0.0,
					"id" : "obj-44",
					"maxclass" : "comment",
					"numinlets" : 1,
					"numoutlets" : 0,
					"patching_rect" : [ 103.0, 104.0, 82.0, 19.0 ],
					"presentation" : 1,
					"presentation_rect" : [ 240.0, 95.0, 56.0, 19.0 ],
					"text" : "tex offset"
				}

			}
, 			{
				"box" : 				{
					"fontname" : "Verdana",
					"fontsize" : 10.0,
					"frgb" : 0.0,
					"id" : "obj-45",
					"maxclass" : "comment",
					"numinlets" : 1,
					"numoutlets" : 0,
					"patching_rect" : [ 103.0, 89.0, 79.0, 19.0 ],
					"presentation" : 1,
					"presentation_rect" : [ 240.0, 75.0, 55.0, 19.0 ],
					"text" : "tex scale"
				}

			}
, 			{
				"box" : 				{
					"fontname" : "Verdana",
					"fontsize" : 10.0,
					"frgb" : 0.0,
					"id" : "obj-46",
					"maxclass" : "comment",
					"numinlets" : 1,
					"numoutlets" : 0,
					"patching_rect" : [ 103.0, 74.0, 77.0, 19.0 ],
					"presentation" : 1,
					"presentation_rect" : [ 240.0, 55.0, 60.0, 19.0 ],
					"text" : "dim"
				}

			}
, 			{
				"box" : 				{
					"fontname" : "Verdana",
					"fontsize" : 10.0,
					"id" : "obj-47",
					"maxclass" : "flonum",
					"minimum" : 0.0,
					"numinlets" : 1,
					"numoutlets" : 2,
					"outlettype" : [ "float", "bang" ],
					"parameter_enable" : 0,
					"patching_rect" : [ 125.5, 226.0, 40.0, 19.0 ],
					"presentation" : 1,
					"presentation_rect" : [ 195.0, 75.0, 45.0, 19.0 ],
					"triangle" : 0,
					"triscale" : 0.9,
					"varname" : "ScaleY"
				}

			}
, 			{
				"box" : 				{
					"fontname" : "Verdana",
					"fontsize" : 10.0,
					"id" : "obj-48",
					"maxclass" : "flonum",
					"minimum" : 0.0,
					"numinlets" : 1,
					"numoutlets" : 2,
					"outlettype" : [ "float", "bang" ],
					"parameter_enable" : 0,
					"patching_rect" : [ 80.5, 226.0, 40.0, 19.0 ],
					"presentation" : 1,
					"presentation_rect" : [ 145.0, 75.0, 45.0, 19.0 ],
					"triangle" : 0,
					"triscale" : 0.9,
					"varname" : "ScaleX"
				}

			}
, 			{
				"box" : 				{
					"fontname" : "Verdana",
					"fontsize" : 10.0,
					"id" : "obj-49",
					"maxclass" : "flonum",
					"numinlets" : 1,
					"numoutlets" : 2,
					"outlettype" : [ "float", "bang" ],
					"parameter_enable" : 0,
					"patching_rect" : [ 130.5, 306.0, 40.0, 19.0 ],
					"presentation" : 1,
					"presentation_rect" : [ 195.0, 95.0, 45.0, 19.0 ],
					"triangle" : 0,
					"triscale" : 0.9,
					"varname" : "OffsetY"
				}

			}
, 			{
				"box" : 				{
					"fontname" : "Verdana",
					"fontsize" : 10.0,
					"id" : "obj-50",
					"maxclass" : "flonum",
					"numinlets" : 1,
					"numoutlets" : 2,
					"outlettype" : [ "float", "bang" ],
					"parameter_enable" : 0,
					"patching_rect" : [ 85.5, 306.0, 40.0, 19.0 ],
					"presentation" : 1,
					"presentation_rect" : [ 145.0, 95.0, 45.0, 19.0 ],
					"triangle" : 0,
					"triscale" : 0.9,
					"varname" : "OffsetX"
				}

			}
, 			{
				"box" : 				{
					"fontname" : "Verdana",
					"fontsize" : 10.0,
					"id" : "obj-51",
					"items" : [ "argb", ",", "uyvy" ],
					"labelclick" : 1,
					"maxclass" : "umenu",
					"numinlets" : 1,
					"numoutlets" : 3,
					"outlettype" : [ "int", "", "" ],
					"parameter_enable" : 0,
					"patching_rect" : [ 435.0, 150.0, 95.0, 19.0 ],
					"presentation" : 1,
					"presentation_rect" : [ 10.0, 90.0, 60.0, 19.0 ],
					"varname" : "Colormode"
				}

			}
, 			{
				"box" : 				{
					"fontname" : "Verdana",
					"fontsize" : 10.0,
					"id" : "obj-57",
					"maxclass" : "newobj",
					"numinlets" : 1,
					"numoutlets" : 2,
					"outlettype" : [ "", "" ],
					"patching_rect" : [ 10.0, 210.5, 40.0, 19.0 ],
					"text" : "j.view",
					"varname" : "j.model"
				}

			}
, 			{
				"box" : 				{
					"comment" : "",
					"id" : "obj-63",
					"maxclass" : "outlet",
					"numinlets" : 1,
					"numoutlets" : 0,
					"patching_rect" : [ 10.0, 245.5, 25.0, 25.0 ]
				}

			}
, 			{
				"box" : 				{
					"comment" : "",
					"id" : "obj-64",
					"maxclass" : "inlet",
					"numinlets" : 0,
					"numoutlets" : 1,
					"outlettype" : [ "" ],
					"patching_rect" : [ 10.0, 175.0, 25.0, 25.0 ]
				}

			}
, 			{
				"box" : 				{
					"id" : "obj-66",
					"maxclass" : "j.ui",
					"numinlets" : 1,
					"numoutlets" : 1,
					"outlettype" : [ "" ],
					"patching_rect" : [ 0.0, 0.0, 300.0, 140.0 ],
					"presentation" : 1,
					"presentation_rect" : [ 0.0, 0.0, 300.0, 490.0 ],
					"text" : "/no_model_address"
				}

			}
 ],
		"lines" : [ 			{
				"patchline" : 				{
					"destination" : [ "obj-101", 10 ],
					"disabled" : 0,
					"hidden" : 0,
					"source" : [ "obj-100", 0 ]
				}

			}
, 			{
				"patchline" : 				{
					"destination" : [ "obj-100", 0 ],
					"disabled" : 0,
					"hidden" : 0,
					"source" : [ "obj-101", 10 ]
				}

			}
, 			{
				"patchline" : 				{
					"destination" : [ "obj-188", 0 ],
					"disabled" : 0,
					"hidden" : 0,
					"source" : [ "obj-101", 0 ]
				}

			}
, 			{
				"patchline" : 				{
					"destination" : [ "obj-190", 0 ],
					"disabled" : 0,
					"hidden" : 0,
					"source" : [ "obj-101", 2 ]
				}

			}
, 			{
				"patchline" : 				{
					"destination" : [ "obj-191", 0 ],
					"disabled" : 0,
					"hidden" : 0,
					"source" : [ "obj-101", 1 ]
				}

			}
, 			{
				"patchline" : 				{
					"destination" : [ "obj-106", 10 ],
					"disabled" : 0,
					"hidden" : 0,
					"source" : [ "obj-105", 0 ]
				}

			}
, 			{
				"patchline" : 				{
					"destination" : [ "obj-105", 0 ],
					"disabled" : 0,
					"hidden" : 0,
					"source" : [ "obj-106", 10 ]
				}

			}
, 			{
				"patchline" : 				{
					"destination" : [ "obj-207", 0 ],
					"disabled" : 0,
					"hidden" : 0,
					"source" : [ "obj-106", 2 ]
				}

			}
, 			{
				"patchline" : 				{
					"destination" : [ "obj-208", 0 ],
					"disabled" : 0,
					"hidden" : 0,
					"source" : [ "obj-106", 1 ]
				}

			}
, 			{
				"patchline" : 				{
					"destination" : [ "obj-209", 0 ],
					"disabled" : 0,
					"hidden" : 0,
					"source" : [ "obj-106", 0 ]
				}

			}
, 			{
				"patchline" : 				{
					"destination" : [ "obj-35", 0 ],
					"disabled" : 0,
					"hidden" : 0,
					"source" : [ "obj-11", 0 ]
				}

			}
, 			{
				"patchline" : 				{
					"destination" : [ "obj-112", 10 ],
					"disabled" : 0,
					"hidden" : 0,
					"source" : [ "obj-111", 0 ]
				}

			}
, 			{
				"patchline" : 				{
					"destination" : [ "obj-111", 0 ],
					"disabled" : 0,
					"hidden" : 0,
					"source" : [ "obj-112", 10 ]
				}

			}
, 			{
				"patchline" : 				{
					"destination" : [ "obj-203", 0 ],
					"disabled" : 0,
					"hidden" : 0,
					"source" : [ "obj-112", 0 ]
				}

			}
, 			{
				"patchline" : 				{
					"destination" : [ "obj-204", 0 ],
					"disabled" : 0,
					"hidden" : 0,
					"source" : [ "obj-112", 3 ]
				}

			}
, 			{
				"patchline" : 				{
					"destination" : [ "obj-205", 0 ],
					"disabled" : 0,
					"hidden" : 0,
					"source" : [ "obj-112", 2 ]
				}

			}
, 			{
				"patchline" : 				{
					"destination" : [ "obj-206", 0 ],
					"disabled" : 0,
					"hidden" : 0,
					"source" : [ "obj-112", 1 ]
				}

			}
, 			{
				"patchline" : 				{
					"destination" : [ "obj-117", 10 ],
					"disabled" : 0,
					"hidden" : 0,
					"source" : [ "obj-116", 0 ]
				}

			}
, 			{
				"patchline" : 				{
					"destination" : [ "obj-116", 0 ],
					"disabled" : 0,
					"hidden" : 0,
					"source" : [ "obj-117", 10 ]
				}

			}
, 			{
				"patchline" : 				{
					"destination" : [ "obj-210", 0 ],
					"disabled" : 0,
					"hidden" : 0,
					"source" : [ "obj-117", 2 ]
				}

			}
, 			{
				"patchline" : 				{
					"destination" : [ "obj-211", 0 ],
					"disabled" : 0,
					"hidden" : 0,
					"source" : [ "obj-117", 1 ]
				}

			}
, 			{
				"patchline" : 				{
					"destination" : [ "obj-212", 0 ],
					"disabled" : 0,
					"hidden" : 0,
					"source" : [ "obj-117", 0 ]
				}

			}
, 			{
				"patchline" : 				{
					"destination" : [ "obj-20", 0 ],
					"disabled" : 0,
					"hidden" : 0,
					"source" : [ "obj-12", 0 ]
				}

			}
, 			{
				"patchline" : 				{
					"destination" : [ "obj-56", 0 ],
					"disabled" : 0,
					"hidden" : 0,
					"source" : [ "obj-124", 0 ]
				}

			}
, 			{
				"patchline" : 				{
					"destination" : [ "obj-55", 0 ],
					"disabled" : 0,
					"hidden" : 0,
					"source" : [ "obj-126", 0 ]
				}

			}
, 			{
				"patchline" : 				{
					"destination" : [ "obj-51", 0 ],
					"disabled" : 0,
					"hidden" : 0,
					"source" : [ "obj-13", 0 ]
				}

			}
, 			{
				"patchline" : 				{
					"destination" : [ "obj-2", 10 ],
					"disabled" : 0,
					"hidden" : 0,
					"source" : [ "obj-14", 0 ]
				}

			}
, 			{
				"patchline" : 				{
					"destination" : [ "obj-37", 0 ],
					"disabled" : 0,
					"hidden" : 0,
					"source" : [ "obj-15", 0 ]
				}

			}
, 			{
				"patchline" : 				{
					"destination" : [ "obj-2", 2 ],
					"disabled" : 0,
					"hidden" : 0,
					"source" : [ "obj-16", 0 ]
				}

			}
, 			{
				"patchline" : 				{
					"destination" : [ "obj-2", 0 ],
					"disabled" : 0,
					"hidden" : 0,
					"source" : [ "obj-18", 0 ]
				}

			}
, 			{
				"patchline" : 				{
					"destination" : [ "obj-101", 0 ],
					"disabled" : 0,
					"hidden" : 0,
					"source" : [ "obj-188", 0 ]
				}

			}
, 			{
				"patchline" : 				{
					"destination" : [ "obj-98", 0 ],
					"disabled" : 0,
					"hidden" : 0,
					"source" : [ "obj-189", 0 ]
				}

			}
, 			{
				"patchline" : 				{
					"destination" : [ "obj-101", 2 ],
					"disabled" : 0,
					"hidden" : 0,
					"source" : [ "obj-190", 0 ]
				}

			}
, 			{
				"patchline" : 				{
					"destination" : [ "obj-101", 1 ],
					"disabled" : 0,
					"hidden" : 0,
					"source" : [ "obj-191", 0 ]
				}

			}
, 			{
				"patchline" : 				{
					"destination" : [ "obj-14", 0 ],
					"disabled" : 0,
					"hidden" : 0,
					"source" : [ "obj-2", 10 ]
				}

			}
, 			{
				"patchline" : 				{
					"destination" : [ "obj-16", 0 ],
					"disabled" : 0,
					"hidden" : 0,
					"source" : [ "obj-2", 2 ]
				}

			}
, 			{
				"patchline" : 				{
					"destination" : [ "obj-18", 0 ],
					"disabled" : 0,
					"hidden" : 0,
					"source" : [ "obj-2", 0 ]
				}

			}
, 			{
				"patchline" : 				{
					"destination" : [ "obj-3", 0 ],
					"disabled" : 0,
					"hidden" : 0,
					"source" : [ "obj-2", 1 ]
				}

			}
, 			{
				"patchline" : 				{
					"destination" : [ "obj-24", 0 ],
					"disabled" : 0,
					"hidden" : 0,
					"source" : [ "obj-20", 0 ]
				}

			}
, 			{
				"patchline" : 				{
					"destination" : [ "obj-58", 0 ],
					"disabled" : 0,
					"hidden" : 0,
					"source" : [ "obj-201", 0 ]
				}

			}
, 			{
				"patchline" : 				{
					"destination" : [ "obj-31", 0 ],
					"disabled" : 0,
					"hidden" : 0,
					"source" : [ "obj-202", 0 ]
				}

			}
, 			{
				"patchline" : 				{
					"destination" : [ "obj-112", 0 ],
					"disabled" : 0,
					"hidden" : 0,
					"source" : [ "obj-203", 0 ]
				}

			}
, 			{
				"patchline" : 				{
					"destination" : [ "obj-112", 3 ],
					"disabled" : 0,
					"hidden" : 0,
					"source" : [ "obj-204", 0 ]
				}

			}
, 			{
				"patchline" : 				{
					"destination" : [ "obj-112", 2 ],
					"disabled" : 0,
					"hidden" : 0,
					"source" : [ "obj-205", 0 ]
				}

			}
, 			{
				"patchline" : 				{
					"destination" : [ "obj-112", 1 ],
					"disabled" : 0,
					"hidden" : 0,
					"source" : [ "obj-206", 0 ]
				}

			}
, 			{
				"patchline" : 				{
					"destination" : [ "obj-106", 2 ],
					"disabled" : 0,
					"hidden" : 0,
					"source" : [ "obj-207", 0 ]
				}

			}
, 			{
				"patchline" : 				{
					"destination" : [ "obj-106", 1 ],
					"disabled" : 0,
					"hidden" : 0,
					"source" : [ "obj-208", 0 ]
				}

			}
, 			{
				"patchline" : 				{
					"destination" : [ "obj-106", 0 ],
					"disabled" : 0,
					"hidden" : 0,
					"source" : [ "obj-209", 0 ]
				}

			}
, 			{
				"patchline" : 				{
					"destination" : [ "obj-40", 0 ],
					"disabled" : 0,
					"hidden" : 0,
					"source" : [ "obj-21", 0 ]
				}

			}
, 			{
				"patchline" : 				{
					"destination" : [ "obj-117", 2 ],
					"disabled" : 0,
					"hidden" : 0,
					"source" : [ "obj-210", 0 ]
				}

			}
, 			{
				"patchline" : 				{
					"destination" : [ "obj-117", 1 ],
					"disabled" : 0,
					"hidden" : 0,
					"source" : [ "obj-211", 0 ]
				}

			}
, 			{
				"patchline" : 				{
					"destination" : [ "obj-117", 0 ],
					"disabled" : 0,
					"hidden" : 0,
					"source" : [ "obj-212", 0 ]
				}

			}
, 			{
				"patchline" : 				{
					"destination" : [ "obj-23", 0 ],
					"disabled" : 0,
					"hidden" : 0,
					"source" : [ "obj-22", 0 ]
				}

			}
, 			{
				"patchline" : 				{
					"destination" : [ "obj-26", 10 ],
					"disabled" : 0,
					"hidden" : 0,
					"source" : [ "obj-23", 0 ]
				}

			}
, 			{
				"patchline" : 				{
					"destination" : [ "obj-239", 0 ],
					"disabled" : 0,
					"hidden" : 0,
					"source" : [ "obj-237", 0 ]
				}

			}
, 			{
				"patchline" : 				{
					"destination" : [ "obj-239", 10 ],
					"disabled" : 0,
					"hidden" : 0,
					"source" : [ "obj-238", 0 ]
				}

			}
, 			{
				"patchline" : 				{
					"destination" : [ "obj-237", 0 ],
					"disabled" : 0,
					"hidden" : 0,
					"source" : [ "obj-239", 0 ]
				}

			}
, 			{
				"patchline" : 				{
					"destination" : [ "obj-238", 0 ],
					"disabled" : 0,
					"hidden" : 0,
					"source" : [ "obj-239", 10 ]
				}

			}
, 			{
				"patchline" : 				{
					"destination" : [ "obj-242", 0 ],
					"disabled" : 0,
					"hidden" : 0,
					"source" : [ "obj-239", 1 ]
				}

			}
, 			{
				"patchline" : 				{
					"destination" : [ "obj-12", 0 ],
					"disabled" : 0,
					"hidden" : 0,
					"source" : [ "obj-24", 0 ]
				}

			}
, 			{
				"patchline" : 				{
					"destination" : [ "obj-239", 1 ],
					"disabled" : 0,
					"hidden" : 0,
					"source" : [ "obj-242", 0 ]
				}

			}
, 			{
				"patchline" : 				{
					"color" : [ 1.0, 0.611765, 0.611765, 1.0 ],
					"destination" : [ "obj-28", 0 ],
					"disabled" : 0,
					"hidden" : 0,
					"source" : [ "obj-25", 0 ]
				}

			}
, 			{
				"patchline" : 				{
					"destination" : [ "obj-22", 0 ],
					"disabled" : 0,
					"hidden" : 0,
					"source" : [ "obj-26", 10 ]
				}

			}
, 			{
				"patchline" : 				{
					"destination" : [ "obj-8", 0 ],
					"disabled" : 0,
					"hidden" : 0,
					"midpoints" : [ 480.899994, 302.5, 453.0, 302.5, 453.0, 236.5, 516.5, 236.5 ],
					"source" : [ "obj-26", 1 ]
				}

			}
, 			{
				"patchline" : 				{
					"destination" : [ "obj-9", 0 ],
					"disabled" : 0,
					"hidden" : 0,
					"midpoints" : [ 471.5, 298.5, 457.0, 298.5, 457.0, 239.5, 471.5, 239.5 ],
					"source" : [ "obj-26", 0 ]
				}

			}
, 			{
				"patchline" : 				{
					"destination" : [ "obj-261", 0 ],
					"disabled" : 0,
					"hidden" : 0,
					"source" : [ "obj-260", 0 ]
				}

			}
, 			{
				"patchline" : 				{
					"destination" : [ "obj-262", 0 ],
					"disabled" : 0,
					"hidden" : 0,
					"source" : [ "obj-261", 0 ]
				}

			}
, 			{
				"patchline" : 				{
					"destination" : [ "obj-260", 0 ],
					"disabled" : 0,
					"hidden" : 0,
					"source" : [ "obj-262", 0 ]
				}

			}
, 			{
				"patchline" : 				{
					"destination" : [ "obj-29", 10 ],
					"disabled" : 0,
					"hidden" : 0,
					"source" : [ "obj-27", 0 ]
				}

			}
, 			{
				"patchline" : 				{
					"destination" : [ "obj-31", 10 ],
					"disabled" : 0,
					"hidden" : 0,
					"source" : [ "obj-28", 0 ]
				}

			}
, 			{
				"patchline" : 				{
					"destination" : [ "obj-27", 0 ],
					"disabled" : 0,
					"hidden" : 0,
					"source" : [ "obj-29", 10 ]
				}

			}
, 			{
				"patchline" : 				{
					"destination" : [ "obj-47", 0 ],
					"disabled" : 0,
					"hidden" : 0,
					"midpoints" : [ 99.400002, 283.0, 69.5, 283.0, 69.5, 215.0, 135.0, 215.0 ],
					"source" : [ "obj-29", 1 ]
				}

			}
, 			{
				"patchline" : 				{
					"destination" : [ "obj-48", 0 ],
					"disabled" : 0,
					"hidden" : 0,
					"midpoints" : [ 90.0, 280.0, 73.5, 280.0, 73.5, 220.0, 90.0, 220.0 ],
					"source" : [ "obj-29", 0 ]
				}

			}
, 			{
				"patchline" : 				{
					"destination" : [ "obj-2", 1 ],
					"disabled" : 0,
					"hidden" : 0,
					"source" : [ "obj-3", 0 ]
				}

			}
, 			{
				"patchline" : 				{
					"destination" : [ "obj-32", 10 ],
					"disabled" : 0,
					"hidden" : 0,
					"source" : [ "obj-30", 0 ]
				}

			}
, 			{
				"patchline" : 				{
					"destination" : [ "obj-202", 0 ],
					"disabled" : 0,
					"hidden" : 0,
					"source" : [ "obj-31", 0 ]
				}

			}
, 			{
				"patchline" : 				{
					"destination" : [ "obj-52", 0 ],
					"disabled" : 0,
					"hidden" : 0,
					"source" : [ "obj-31", 10 ]
				}

			}
, 			{
				"patchline" : 				{
					"destination" : [ "obj-54", 0 ],
					"disabled" : 0,
					"hidden" : 0,
					"source" : [ "obj-31", 1 ]
				}

			}
, 			{
				"patchline" : 				{
					"destination" : [ "obj-30", 0 ],
					"disabled" : 0,
					"hidden" : 0,
					"source" : [ "obj-32", 10 ]
				}

			}
, 			{
				"patchline" : 				{
					"destination" : [ "obj-49", 0 ],
					"disabled" : 0,
					"hidden" : 0,
					"midpoints" : [ 104.400002, 364.0, 73.5, 364.0, 73.5, 297.0, 140.0, 297.0 ],
					"source" : [ "obj-32", 1 ]
				}

			}
, 			{
				"patchline" : 				{
					"destination" : [ "obj-50", 0 ],
					"disabled" : 0,
					"hidden" : 0,
					"midpoints" : [ 95.0, 360.0, 77.5, 360.0, 77.5, 300.0, 95.0, 300.0 ],
					"source" : [ "obj-32", 0 ]
				}

			}
, 			{
				"patchline" : 				{
					"destination" : [ "obj-11", 0 ],
					"disabled" : 0,
					"hidden" : 0,
					"source" : [ "obj-35", 1 ]
				}

			}
, 			{
				"patchline" : 				{
					"destination" : [ "obj-15", 0 ],
					"disabled" : 0,
					"hidden" : 0,
					"source" : [ "obj-37", 0 ]
				}

			}
, 			{
				"patchline" : 				{
					"destination" : [ "obj-21", 0 ],
					"disabled" : 0,
					"hidden" : 0,
					"source" : [ "obj-40", 0 ]
				}

			}
, 			{
				"patchline" : 				{
					"destination" : [ "obj-29", 1 ],
					"disabled" : 0,
					"hidden" : 0,
					"source" : [ "obj-47", 0 ]
				}

			}
, 			{
				"patchline" : 				{
					"destination" : [ "obj-29", 0 ],
					"disabled" : 0,
					"hidden" : 0,
					"source" : [ "obj-48", 0 ]
				}

			}
, 			{
				"patchline" : 				{
					"destination" : [ "obj-32", 1 ],
					"disabled" : 0,
					"hidden" : 0,
					"source" : [ "obj-49", 0 ]
				}

			}
, 			{
				"patchline" : 				{
					"destination" : [ "obj-6", 0 ],
					"disabled" : 0,
					"hidden" : 0,
					"source" : [ "obj-5", 0 ]
				}

			}
, 			{
				"patchline" : 				{
					"destination" : [ "obj-32", 0 ],
					"disabled" : 0,
					"hidden" : 0,
					"source" : [ "obj-50", 0 ]
				}

			}
, 			{
				"patchline" : 				{
					"destination" : [ "obj-13", 0 ],
					"disabled" : 0,
					"hidden" : 0,
					"source" : [ "obj-51", 1 ]
				}

			}
, 			{
				"patchline" : 				{
					"destination" : [ "obj-28", 0 ],
					"disabled" : 0,
					"hidden" : 0,
					"source" : [ "obj-52", 0 ]
				}

			}
, 			{
				"patchline" : 				{
					"destination" : [ "obj-31", 1 ],
					"disabled" : 0,
					"hidden" : 0,
					"source" : [ "obj-54", 0 ]
				}

			}
, 			{
				"patchline" : 				{
					"destination" : [ "obj-126", 0 ],
					"disabled" : 0,
					"hidden" : 0,
					"source" : [ "obj-55", 0 ]
				}

			}
, 			{
				"patchline" : 				{
					"destination" : [ "obj-124", 0 ],
					"disabled" : 0,
					"hidden" : 0,
					"source" : [ "obj-56", 0 ]
				}

			}
, 			{
				"patchline" : 				{
					"destination" : [ "obj-63", 0 ],
					"disabled" : 0,
					"hidden" : 0,
					"source" : [ "obj-57", 0 ]
				}

			}
, 			{
				"patchline" : 				{
					"destination" : [ "obj-201", 0 ],
					"disabled" : 0,
					"hidden" : 0,
					"source" : [ "obj-58", 0 ]
				}

			}
, 			{
				"patchline" : 				{
					"destination" : [ "obj-5", 0 ],
					"disabled" : 0,
					"hidden" : 0,
					"source" : [ "obj-6", 0 ]
				}

			}
, 			{
				"patchline" : 				{
					"destination" : [ "obj-57", 0 ],
					"disabled" : 0,
					"hidden" : 0,
					"source" : [ "obj-64", 0 ]
				}

			}
, 			{
				"patchline" : 				{
					"destination" : [ "obj-1", 0 ],
					"disabled" : 0,
					"hidden" : 0,
					"source" : [ "obj-66", 0 ]
				}

			}
, 			{
				"patchline" : 				{
					"destination" : [ "obj-26", 1 ],
					"disabled" : 0,
					"hidden" : 0,
					"source" : [ "obj-8", 0 ]
				}

			}
, 			{
				"patchline" : 				{
					"destination" : [ "obj-26", 0 ],
					"disabled" : 0,
					"hidden" : 0,
					"source" : [ "obj-9", 0 ]
				}

			}
, 			{
				"patchline" : 				{
					"destination" : [ "obj-189", 0 ],
					"disabled" : 0,
					"hidden" : 0,
					"source" : [ "obj-98", 0 ]
				}

			}
 ],
		"dependency_cache" : [ 			{
				"name" : "j.list2parameter.maxpat",
				"bootpath" : "/Users/reno/Documents/GITs/larsen/jamoma-package/Jamoma/patchers/components/data/list2parameter",
				"patcherrelativepath" : "../../../../components/data/list2parameter",
				"type" : "JSON",
				"implicit" : 1
			}
, 			{
				"name" : "j.gl_group.panel.maxpat",
				"bootpath" : "/Users/reno/Documents/GITs/larsen/jamoma-package/Jamoma/patchers/components/openGL/gl_group",
				"patcherrelativepath" : "../../../../components/openGL/gl_group",
				"type" : "JSON",
				"implicit" : 1
			}
, 			{
				"name" : "j.gl_group.view.maxpat",
				"bootpath" : "/Users/reno/Documents/GITs/larsen/jamoma-package/Jamoma/patchers/components/openGL/gl_group",
				"patcherrelativepath" : "../../../../components/openGL/gl_group",
				"type" : "JSON",
				"implicit" : 1
			}
, 			{
				"name" : "j.ui.mxo",
				"type" : "iLaX"
			}
, 			{
				"name" : "j.view.mxo",
				"type" : "iLaX"
			}
, 			{
				"name" : "j.remote.mxo",
				"type" : "iLaX"
			}
, 			{
				"name" : "j.send.mxo",
				"type" : "iLaX"
			}
, 			{
				"name" : "j.receive.mxo",
				"type" : "iLaX"
			}
 ]
	}

}
